<?xml version="1.0" encoding="utf-8"?>
<!-- Generator: Adobe Illustrator 19.2.1, SVG Export Plug-In . SVG Version: 6.00 Build 0)  -->
<svg xmlns="http://www.w3.org/2000/svg" xmlns:xlink="http://www.w3.org/1999/xlink" version="1.1" id="Layer" x="0px" y="0px" width="512" height="512" viewBox="0 0 64 64" enable-background="new 0 0 64 64" xml:space="preserve">
<path fill="#CCE4FF" d="M28,40c0-2.21,1.79-4,4-4s4,1.79,4,4v6h8V27c0-4.46-2.43-8.35-6.03-10.41C37.67,19.63,35.11,22,32,22  s-5.67-2.37-5.97-5.41C22.43,18.65,20,22.54,20,27v19h8V40z"/>
<path fill="#007AFF" d="M21.287,18C19.203,20.486,18,23.662,18,27v21h8v2c0,3.309,2.691,6,6,6s6-2.691,6-6v-2h8V27  c0-3.338-1.203-6.514-3.287-9h4.357l5.703-8.555l-3.328-2.219L44.93,14h-5.193C38.845,10.555,35.719,8,32,8s-6.845,2.555-7.737,6  H19.07l-4.516-6.773l-3.328,2.219L16.93,18H21.287z M34,44v4v2c0,1.103-0.897,2-2,2s-2-0.897-2-2v-2v-4v-4c0-1.103,0.897-2,2-2  s2,0.897,2,2V44z M32,12c2.206,0,4,1.794,4,4c0,0.128-0.006,0.255-0.018,0.376l-0.002,0.017C35.777,18.449,34.066,20,32,20  s-3.777-1.551-3.98-3.607l-0.002-0.017C28.006,16.255,28,16.128,28,16C28,13.794,29.794,12,32,12z M22,27  c0-2.711,1.105-5.277,2.99-7.132c1.051,1.914,2.86,3.322,5.01,3.872V30h4v-6.26c2.15-0.55,3.959-1.957,5.01-3.872  C40.895,21.723,42,24.289,42,27v17h-4v-4c0-3.309-2.691-6-6-6s-6,2.691-6,6v4h-4V27z"/>
</svg>
